<svg xmlns="http://www.w3.org/2000/svg" xmlns:xlink="http://www.w3.org/1999/xlink" width="500" zoomAndPan="magnify" viewBox="0 0 375 374.999991" height="500" preserveAspectRatio="xMidYMid meet" version="1.0"><defs><g/><clipPath id="2348e924a8"><path d="M 161 70.371094 L 214 70.371094 L 214 214.371094 L 161 214.371094 Z M 161 70.371094 " clip-rule="nonzero"/></clipPath><clipPath id="fb33e34f0c"><path d="M 98.214844 280.628906 L 138.714844 280.628906 L 138.714844 306 L 98.214844 306 Z M 98.214844 280.628906 " clip-rule="nonzero"/></clipPath><clipPath id="84680dd80d"><path d="M 231.785156 280.628906 L 272.285156 280.628906 L 272.285156 306 L 231.785156 306 Z M 231.785156 280.628906 " clip-rule="nonzero"/></clipPath></defs><g clip-path="url(#2348e924a8)"><path stroke-linecap="round" transform="matrix(0.321815, 0, 0, 0.321815, 123.314044, 70.370129)" fill="none" stroke-linejoin="round" d="M 278.21482 224.159084 C 278.21482 231.429864 278.093438 238.688506 277.838536 245.93501 C 277.583633 253.169375 277.207349 260.355188 276.697545 267.492448 C 276.199879 274.629708 275.568693 281.682 274.828263 288.637187 C 274.075695 295.604512 273.201744 302.450456 272.21855 309.175017 C 271.235356 315.88744 270.13078 322.466343 268.916961 328.875311 C 267.691003 335.296417 266.367939 341.523312 264.935632 347.580273 C 263.503325 353.625095 261.973912 359.463568 260.335255 365.083553 C 258.696599 370.715676 256.972975 376.092898 255.140107 381.239493 C 253.319377 386.386089 251.41368 391.265644 249.410878 395.878159 C 247.420214 400.502812 245.35672 404.82401 243.208259 408.86603 C 241.059798 412.908049 238.850646 416.646614 236.580804 420.081724 C 234.298823 423.504696 231.968289 426.612074 229.589202 429.403859 C 227.210115 432.183507 224.782476 434.635422 222.306284 436.747469 C 219.84223 438.859515 217.341761 440.619554 214.817016 442.039723 C 212.280133 443.459892 209.731112 444.528053 207.169952 445.244207 C 204.596654 445.948222 202.023356 446.312368 199.450059 446.312368 C 196.864623 446.312368 194.291325 445.948222 191.730165 445.244207 C 189.156867 444.528053 186.607846 443.459892 184.083101 442.039723 C 181.546218 440.619554 179.045749 438.859515 176.581695 436.747469 C 174.117641 434.635422 171.690002 432.183507 169.298777 429.403859 C 166.91969 426.612074 164.589156 423.504696 162.319314 420.081724 C 160.037333 416.646614 157.828181 412.908049 155.67972 408.86603 C 153.543397 404.82401 151.467765 400.502812 149.477101 395.878159 C 147.486437 391.265644 145.568602 386.386089 143.747872 381.239493 C 141.927142 376.092898 140.19138 370.715676 138.552724 365.083553 C 136.926205 359.463568 135.384654 353.625095 133.952347 347.580273 C 132.52004 341.523312 131.196976 335.296417 129.983156 328.875311 C 128.757199 322.466343 127.664761 315.88744 126.669429 309.175017 C 125.686235 302.450456 124.824423 295.604512 124.071854 288.637187 C 123.319286 281.682 122.700238 274.629708 122.190434 267.492448 C 121.692768 260.355188 121.304346 253.169375 121.061582 245.93501 C 120.806679 238.688506 120.673159 231.429864 120.673159 224.159084 C 120.673159 216.876166 120.806679 209.617524 121.061582 202.383159 C 121.304346 195.136655 121.692768 187.950842 122.190434 180.813582 C 122.700238 173.676322 123.319286 166.62403 124.071854 159.668843 C 124.824423 152.701518 125.686235 145.867713 126.669429 139.143152 C 127.664761 132.41859 128.757199 125.851826 129.983156 119.430719 C 131.196976 113.009613 132.52004 106.782718 133.952347 100.737896 C 135.384654 94.680935 136.926205 88.842463 138.552724 83.222477 C 140.19138 77.602492 141.927142 72.213133 143.747872 67.066537 C 145.568602 61.919941 147.486437 57.040386 149.477101 52.427871 C 151.467765 47.815356 153.543397 43.48202 155.67972 39.44 C 157.828181 35.397981 160.037333 31.659416 162.319314 28.236444 C 164.589156 24.801335 166.91969 21.693956 169.298777 18.914309 C 171.690002 16.122524 174.117641 13.682746 176.581695 11.5707 C 179.045749 9.458653 181.546218 7.686477 184.083101 6.266308 C 186.607846 4.846139 189.156867 3.777977 191.730165 3.073962 C 194.291325 2.357808 196.864623 2.0058 199.450059 2.0058 C 202.023356 2.0058 204.596654 2.357808 207.169952 3.073962 C 209.731112 3.777977 212.280133 4.846139 214.817016 6.266308 C 217.341761 7.686477 219.84223 9.458653 222.306284 11.5707 C 224.782476 13.682746 227.210115 16.122524 229.589202 18.914309 C 231.968289 21.693956 234.298823 24.801335 236.580804 28.236444 C 238.850646 31.659416 241.059798 35.397981 243.208259 39.44 C 245.35672 43.48202 247.420214 47.815356 249.410878 52.427871 C 251.41368 57.040386 253.319377 61.919941 255.140107 67.066537 C 256.972975 72.213133 258.696599 77.602492 260.335255 83.222477 C 261.973912 88.842463 263.503325 94.680935 264.935632 100.737896 C 266.367939 106.782718 267.691003 113.009613 268.916961 119.430719 C 270.13078 125.851826 271.235356 132.41859 272.21855 139.143152 C 273.201744 145.867713 274.075695 152.701518 274.828263 159.668843 C 275.568693 166.62403 276.199879 173.676322 276.697545 180.813582 C 277.207349 187.950842 277.583633 195.136655 277.838536 202.383159 C 278.093438 209.617524 278.21482 216.876166 278.21482 224.159084 Z M 278.21482 224.159084 " stroke="#2d334a" stroke-width="4" stroke-opacity="1" stroke-miterlimit="4"/></g><path stroke-linecap="round" transform="matrix(0.272786, -0.170741, 0.170741, 0.272786, 94.819928, 115.41389)" fill="none" stroke-linejoin="round" d="M 421.599581 224.147948 C 421.596594 226.737966 421.246223 229.311029 420.53174 231.870986 C 419.821106 234.447673 418.75924 236.990676 417.333261 239.520573 C 415.907283 242.050471 414.14036 244.553125 412.038935 247.018247 C 409.92078 249.487218 407.474562 251.908367 404.687401 254.302273 C 401.906679 256.68589 398.804334 259.011397 395.373926 261.289082 C 391.933229 263.560328 388.204366 265.765765 384.164168 267.919532 C 380.120122 270.056571 375.78791 272.127801 371.173972 274.122933 C 366.560034 276.118066 361.6811 278.033253 356.533319 279.851765 C 351.385539 281.670277 346.00622 283.401145 340.378634 285.048217 C 334.757487 286.685001 328.917681 288.213563 322.863066 289.650632 C 316.81489 291.077413 310.585363 292.405002 304.170634 293.616671 C 297.749466 294.83863 291.186843 295.943411 284.455748 296.928423 C 277.741382 297.909586 270.895851 298.780011 263.935884 299.53585 C 256.972068 300.274959 249.920833 300.902073 242.78862 301.406903 C 235.656406 301.911732 228.459944 302.290428 221.226249 302.545582 C 213.982266 302.794295 206.728069 302.922057 199.453369 302.922428 C 192.16838 302.916358 184.910484 302.798368 177.665544 302.545289 C 170.437332 302.288361 163.242654 301.909223 156.108526 301.410467 C 148.964109 300.905271 141.92399 300.279198 134.961151 299.529659 C 127.998312 298.780119 121.15006 297.916143 114.433123 296.933882 C 107.712338 295.934892 101.137005 294.840785 94.726447 293.620695 C 88.309448 292.410895 82.067512 291.081551 76.021216 289.645543 C 69.97492 288.209536 64.134553 286.673306 58.510404 285.043292 C 52.892696 283.402989 47.501495 281.675344 42.359969 279.846217 C 37.212004 278.027378 32.334292 276.119939 27.716546 274.117459 C 23.102649 272.131707 18.769294 270.063795 14.726771 267.920161 C 10.690688 265.766238 6.959575 263.559763 3.529583 261.284006 C 0.099591 259.00825 -3.015143 256.686381 -5.801737 254.297822 C -8.578043 251.915704 -11.028802 249.493912 -13.147572 247.02216 C -15.256054 244.556848 -17.022259 242.048014 -18.43849 239.529117 C -19.85857 236.993491 -20.928675 234.447801 -21.635926 231.871471 C -22.349617 229.305429 -22.703044 226.735764 -22.706497 224.156035 C -22.70995 221.576306 -22.359579 219.003243 -21.638657 216.432997 C -20.924174 213.873039 -19.855867 211.319747 -18.440178 208.78341 C -17.020639 206.263801 -15.253717 203.761147 -13.145851 201.285736 C -11.027697 198.816766 -8.581479 196.395616 -5.800757 194.011999 C -3.020036 191.628382 0.0990382 189.299026 3.529447 187.021341 C 6.953415 184.753944 10.688718 182.538218 14.732764 180.40118 C 18.772962 178.247413 23.105174 176.176183 27.719112 174.18105 C 32.33305 172.185917 37.215833 170.287459 42.359764 168.452218 C 47.507544 166.633706 52.886863 164.902839 58.50801 163.266055 C 64.139446 161.635711 69.975402 160.09042 76.023578 158.66364 C 82.078193 157.226571 88.307721 155.898981 94.722449 154.687312 C 101.137178 153.475642 107.71009 152.377302 114.430895 151.38585 C 121.151701 150.394398 127.997232 149.523972 134.961049 148.784863 C 141.921016 148.029024 148.972251 147.40191 156.104464 146.89708 C 163.246966 146.398691 170.4267 146.023844 177.677123 145.764841 C 184.910818 145.509688 192.175304 145.388366 199.450004 145.387996 C 206.724704 145.387625 213.976159 145.515904 221.2211 145.768983 C 228.46604 146.022063 235.65043 146.39476 242.784558 146.893516 C 249.922534 147.409001 256.969093 148.024785 263.931932 148.774324 C 270.894771 149.523864 277.736584 150.398129 284.463809 151.38683 C 291.180746 152.369092 297.749638 153.473487 304.166637 154.683288 C 310.587485 155.909818 316.819132 157.232722 322.871868 158.65844 C 328.918164 160.094447 334.758531 161.630677 340.376239 163.27098 C 346.000388 164.900994 351.391589 166.62864 356.533115 168.457767 C 361.68108 170.276605 366.558791 172.184044 371.176538 174.186525 C 375.783995 176.182565 380.11735 178.250478 384.159872 180.394112 C 388.202395 182.537745 391.943797 184.750661 395.373789 187.026417 C 398.803782 189.302173 401.901786 191.627891 404.688381 194.01645 C 407.481416 196.39472 409.925734 198.8268 412.034216 201.292112 C 414.142698 203.757425 415.915343 206.255969 417.335423 208.791595 C 418.745214 211.320781 419.815319 213.866471 420.52901 216.432513 C 421.2427 218.998554 421.606417 221.57466 421.599581 224.147948 Z M 421.599581 224.147948 " stroke="#2d334a" stroke-width="4" stroke-opacity="1" stroke-miterlimit="4"/><path stroke-linecap="round" transform="matrix(0.170741, -0.272786, 0.272786, 0.170741, 92.298625, 158.640018)" fill="none" stroke-linejoin="round" d="M 278.2166 224.159855 C 278.216229 231.434555 278.088467 238.688752 277.839754 245.932735 C 277.584601 253.16643 277.205905 260.362892 276.701075 267.495106 C 276.196246 274.627319 275.569132 281.678554 274.819733 288.64881 C 274.074183 295.602337 273.203758 302.447869 272.212306 309.168674 C 271.237583 315.893329 270.132802 322.455952 268.910844 328.87712 C 267.699174 335.291849 266.371585 341.521376 264.934516 347.575992 C 263.507736 353.624167 261.968885 359.470413 260.332101 365.09156 C 258.695317 370.712706 256.970889 376.102314 255.145937 381.239806 C 253.317136 386.394026 251.412239 391.26652 249.417106 395.880458 C 247.421973 400.494396 245.350743 404.826608 243.213705 408.870654 C 241.059938 412.910852 238.844211 416.646155 236.583255 420.080412 C 234.305569 423.51082 231.969773 426.619605 229.586156 429.400327 C 227.202539 432.181048 224.78139 434.627266 222.312419 436.745421 C 219.837008 438.853286 217.344643 440.613769 214.814746 442.039747 C 212.284848 443.465726 209.731556 444.534032 207.165159 445.238226 C 204.605201 445.952709 202.021849 446.30952 199.44212 446.306067 C 196.868832 446.312903 194.292727 445.949186 191.726685 445.235496 C 189.160643 444.521805 186.604665 443.45814 184.085768 442.041909 C 181.550142 440.621829 179.051597 438.849184 176.575995 436.747142 C 174.110683 434.63866 171.688892 432.187902 169.300333 429.401307 C 166.922063 426.608272 164.596346 423.510268 162.320589 420.080275 C 160.044833 416.650283 157.831918 412.908881 155.688284 408.866358 C 153.534361 404.830276 151.466448 400.496921 149.480697 395.883024 C 147.478216 391.265277 145.570777 386.387566 143.751939 381.239601 C 141.922812 376.098075 140.195166 370.706874 138.554863 365.089165 C 136.92485 359.465017 135.388619 353.62465 133.952612 347.578354 C 132.516605 341.532058 131.193701 335.300411 129.97746 328.873123 C 128.75737 322.462564 127.663264 315.887232 126.681003 309.170295 C 125.682012 302.44951 124.818036 295.601257 124.068497 288.638418 C 123.318957 281.675579 122.692885 274.63546 122.187689 267.491044 C 121.688933 260.356916 121.316235 253.172526 121.052867 245.934026 C 120.799787 238.689085 120.681797 231.43119 120.682168 224.15649 C 120.682538 216.88179 120.80386 209.617304 121.059014 202.38361 C 121.307727 195.139626 121.692863 187.953452 122.191253 180.81095 C 122.696082 173.678737 123.323196 166.627502 124.068746 159.673975 C 124.818145 152.703718 125.68857 145.858187 126.669733 139.143821 C 127.661185 132.423016 128.759526 125.850104 129.981484 119.428935 C 131.193154 113.014207 132.520743 106.784679 133.957812 100.730064 C 135.384592 94.681888 136.919594 88.852372 138.560227 83.214496 C 140.197011 77.593349 141.927879 72.21403 143.74639 67.06625 C 145.571342 61.928759 147.480089 57.039536 149.475222 52.425598 C 151.470355 47.81166 153.541585 43.479448 155.685063 39.445691 C 157.83239 35.395204 160.037827 31.666341 162.315513 28.235933 C 164.593198 24.805524 166.912265 21.69289 169.306171 18.905729 C 171.689788 16.125007 174.110938 13.678789 176.579909 11.560635 C 179.055319 9.452769 181.547684 7.692287 184.077582 6.266308 C 186.61392 4.850619 189.156923 3.788752 191.727169 3.067829 C 194.287127 2.353347 196.870479 1.996536 199.450207 1.999989 C 202.029936 2.003442 204.599601 2.356869 207.165643 3.07056 C 209.731685 3.784251 212.287663 4.847916 214.813 6.274436 C 217.342186 7.684227 219.840731 9.456872 222.306043 11.565354 C 224.777796 13.684124 227.209876 16.128443 229.591995 18.904749 C 231.970265 21.697783 234.302422 24.806077 236.578179 28.236069 C 238.853935 31.666062 241.06041 35.397175 243.204044 39.439697 C 245.347678 43.48222 247.425879 47.809135 249.411631 52.423032 C 251.414111 57.040778 253.321551 61.91849 255.140389 67.066455 C 256.969516 72.207981 258.697162 77.599182 260.337464 83.216891 C 261.967478 88.841039 263.503708 94.681406 264.939716 100.727702 C 266.365434 106.780438 267.694778 113.022374 268.914868 119.432933 C 270.124668 125.849932 271.229064 132.418824 272.217765 139.146049 C 273.200026 145.862986 274.074291 152.704798 274.823831 159.667637 C 275.573371 166.630477 276.189154 173.677035 276.704639 180.815012 C 277.203395 187.94914 277.582533 195.143818 277.829172 202.37847 C 278.082252 209.62341 278.21053 216.874866 278.2166 224.159855 Z M 278.2166 224.159855 " stroke="#2d334a" stroke-width="4" stroke-opacity="1" stroke-miterlimit="4"/><path fill="#21266e" d="M 203.730469 142.507812 C 203.730469 143.039062 203.703125 143.570312 203.652344 144.097656 C 203.597656 144.625 203.523438 145.152344 203.417969 145.671875 C 203.3125 146.195312 203.183594 146.710938 203.03125 147.21875 C 202.875 147.726562 202.699219 148.226562 202.496094 148.71875 C 202.289062 149.207031 202.0625 149.6875 201.8125 150.15625 C 201.5625 150.625 201.289062 151.082031 200.996094 151.523438 C 200.699219 151.964844 200.382812 152.390625 200.046875 152.804688 C 199.707031 153.214844 199.351562 153.609375 198.976562 153.984375 C 198.601562 154.359375 198.207031 154.714844 197.796875 155.054688 C 197.382812 155.390625 196.957031 155.707031 196.515625 156.003906 C 196.074219 156.296875 195.617188 156.570312 195.148438 156.820312 C 194.679688 157.070312 194.199219 157.296875 193.710938 157.503906 C 193.21875 157.707031 192.71875 157.882812 192.210938 158.039062 C 191.703125 158.191406 191.1875 158.320312 190.664062 158.425781 C 190.144531 158.53125 189.617188 158.605469 189.089844 158.660156 C 188.5625 158.710938 188.03125 158.738281 187.5 158.738281 C 186.96875 158.738281 186.4375 158.710938 185.90625 158.660156 C 185.378906 158.605469 184.855469 158.53125 184.332031 158.425781 C 183.8125 158.320312 183.296875 158.191406 182.785156 158.039062 C 182.277344 157.882812 181.777344 157.707031 181.289062 157.503906 C 180.796875 157.296875 180.316406 157.070312 179.847656 156.820312 C 179.378906 156.570312 178.921875 156.296875 178.480469 156.003906 C 178.039062 155.707031 177.613281 155.390625 177.203125 155.054688 C 176.789062 154.714844 176.398438 154.359375 176.023438 153.984375 C 175.644531 153.609375 175.289062 153.214844 174.953125 152.804688 C 174.613281 152.390625 174.296875 151.964844 174.003906 151.523438 C 173.707031 151.082031 173.433594 150.625 173.183594 150.15625 C 172.933594 149.6875 172.707031 149.207031 172.503906 148.71875 C 172.300781 148.226562 172.121094 147.726562 171.964844 147.21875 C 171.8125 146.710938 171.683594 146.195312 171.578125 145.671875 C 171.476562 145.152344 171.398438 144.625 171.347656 144.097656 C 171.292969 143.570312 171.269531 143.039062 171.269531 142.507812 C 171.269531 141.976562 171.292969 141.445312 171.347656 140.914062 C 171.398438 140.386719 171.476562 139.863281 171.578125 139.339844 C 171.683594 138.820312 171.8125 138.304688 171.964844 137.792969 C 172.121094 137.285156 172.300781 136.785156 172.503906 136.296875 C 172.707031 135.804688 172.933594 135.324219 173.183594 134.855469 C 173.433594 134.386719 173.707031 133.929688 174.003906 133.488281 C 174.296875 133.046875 174.613281 132.621094 174.953125 132.210938 C 175.289062 131.796875 175.644531 131.40625 176.023438 131.03125 C 176.398438 130.652344 176.789062 130.296875 177.203125 129.960938 C 177.613281 129.621094 178.039062 129.304688 178.480469 129.011719 C 178.921875 128.714844 179.378906 128.441406 179.847656 128.191406 C 180.316406 127.941406 180.796875 127.714844 181.289062 127.511719 C 181.777344 127.308594 182.277344 127.128906 182.785156 126.972656 C 183.296875 126.820312 183.8125 126.691406 184.332031 126.585938 C 184.855469 126.484375 185.378906 126.40625 185.90625 126.355469 C 186.4375 126.300781 186.96875 126.277344 187.5 126.277344 C 188.03125 126.277344 188.5625 126.300781 189.089844 126.355469 C 189.617188 126.40625 190.144531 126.484375 190.664062 126.585938 C 191.1875 126.691406 191.703125 126.820312 192.210938 126.972656 C 192.71875 127.128906 193.21875 127.308594 193.710938 127.511719 C 194.199219 127.714844 194.679688 127.941406 195.148438 128.191406 C 195.617188 128.441406 196.074219 128.714844 196.515625 129.011719 C 196.957031 129.304688 197.382812 129.621094 197.796875 129.960938 C 198.207031 130.296875 198.601562 130.652344 198.976562 131.03125 C 199.351562 131.40625 199.707031 131.796875 200.046875 132.210938 C 200.382812 132.621094 200.699219 133.046875 200.996094 133.488281 C 201.289062 133.929688 201.5625 134.386719 201.8125 134.855469 C 202.0625 135.324219 202.289062 135.804688 202.496094 136.296875 C 202.699219 136.785156 202.875 137.285156 203.03125 137.792969 C 203.183594 138.304688 203.3125 138.820312 203.417969 139.339844 C 203.523438 139.863281 203.597656 140.386719 203.652344 140.914062 C 203.703125 141.445312 203.730469 141.976562 203.730469 142.507812 Z M 203.730469 142.507812 " fill-opacity="1" fill-rule="nonzero"/><path fill="#3d50df" d="M 255.414062 104.007812 C 255.414062 104.425781 255.371094 104.84375 255.289062 105.253906 C 255.207031 105.667969 255.085938 106.066406 254.925781 106.457031 C 254.765625 106.84375 254.566406 107.214844 254.332031 107.5625 C 254.097656 107.914062 253.832031 108.238281 253.535156 108.535156 C 253.238281 108.832031 252.914062 109.097656 252.566406 109.332031 C 252.214844 109.5625 251.847656 109.761719 251.460938 109.921875 C 251.070312 110.082031 250.671875 110.203125 250.257812 110.285156 C 249.84375 110.367188 249.429688 110.410156 249.007812 110.410156 C 248.589844 110.410156 248.171875 110.367188 247.757812 110.285156 C 247.347656 110.203125 246.945312 110.082031 246.558594 109.921875 C 246.167969 109.761719 245.800781 109.5625 245.449219 109.332031 C 245.101562 109.097656 244.777344 108.832031 244.480469 108.535156 C 244.183594 108.238281 243.917969 107.914062 243.683594 107.5625 C 243.449219 107.214844 243.253906 106.84375 243.09375 106.457031 C 242.933594 106.066406 242.808594 105.667969 242.726562 105.253906 C 242.644531 104.84375 242.605469 104.425781 242.605469 104.007812 C 242.605469 103.585938 242.644531 103.167969 242.726562 102.757812 C 242.808594 102.34375 242.933594 101.945312 243.09375 101.554688 C 243.253906 101.167969 243.449219 100.796875 243.683594 100.449219 C 243.917969 100.097656 244.183594 99.777344 244.480469 99.476562 C 244.777344 99.179688 245.101562 98.914062 245.449219 98.683594 C 245.800781 98.449219 246.167969 98.25 246.558594 98.089844 C 246.945312 97.929688 247.347656 97.808594 247.757812 97.726562 C 248.171875 97.644531 248.589844 97.601562 249.007812 97.601562 C 249.429688 97.601562 249.84375 97.644531 250.257812 97.726562 C 250.671875 97.808594 251.070312 97.929688 251.460938 98.089844 C 251.847656 98.25 252.214844 98.449219 252.566406 98.683594 C 252.914062 98.914062 253.238281 99.179688 253.535156 99.476562 C 253.832031 99.777344 254.097656 100.097656 254.332031 100.449219 C 254.566406 100.796875 254.765625 101.167969 254.925781 101.554688 C 255.085938 101.945312 255.207031 102.34375 255.289062 102.757812 C 255.371094 103.167969 255.414062 103.585938 255.414062 104.007812 Z M 255.414062 104.007812 " fill-opacity="1" fill-rule="nonzero"/><path fill="#ffca43" d="M 136.441406 124.316406 C 136.441406 124.738281 136.402344 125.15625 136.320312 125.566406 C 136.238281 125.980469 136.117188 126.378906 135.957031 126.769531 C 135.792969 127.15625 135.597656 127.527344 135.363281 127.875 C 135.128906 128.226562 134.863281 128.546875 134.566406 128.847656 C 134.269531 129.144531 133.945312 129.410156 133.597656 129.640625 C 133.246094 129.875 132.878906 130.074219 132.488281 130.234375 C 132.101562 130.394531 131.699219 130.515625 131.289062 130.597656 C 130.875 130.679688 130.460938 130.722656 130.039062 130.722656 C 129.617188 130.722656 129.203125 130.679688 128.789062 130.597656 C 128.378906 130.515625 127.976562 130.394531 127.589844 130.234375 C 127.199219 130.074219 126.832031 129.875 126.480469 129.640625 C 126.132812 129.410156 125.808594 129.144531 125.511719 128.847656 C 125.214844 128.546875 124.949219 128.226562 124.714844 127.875 C 124.480469 127.527344 124.285156 127.15625 124.125 126.769531 C 123.960938 126.378906 123.839844 125.980469 123.757812 125.566406 C 123.675781 125.15625 123.636719 124.738281 123.636719 124.316406 C 123.636719 123.898438 123.675781 123.480469 123.757812 123.070312 C 123.839844 122.65625 123.960938 122.253906 124.125 121.867188 C 124.285156 121.480469 124.480469 121.109375 124.714844 120.761719 C 124.949219 120.410156 125.214844 120.085938 125.511719 119.789062 C 125.808594 119.492188 126.132812 119.226562 126.480469 118.992188 C 126.832031 118.761719 127.199219 118.5625 127.589844 118.402344 C 127.976562 118.242188 128.378906 118.121094 128.789062 118.039062 C 129.203125 117.957031 129.617188 117.914062 130.039062 117.914062 C 130.460938 117.914062 130.875 117.957031 131.289062 118.039062 C 131.699219 118.121094 132.101562 118.242188 132.488281 118.402344 C 132.878906 118.5625 133.246094 118.761719 133.597656 118.992188 C 133.945312 119.226562 134.269531 119.492188 134.566406 119.789062 C 134.863281 120.085938 135.128906 120.410156 135.363281 120.761719 C 135.597656 121.109375 135.792969 121.480469 135.957031 121.867188 C 136.117188 122.253906 136.238281 122.65625 136.320312 123.070312 C 136.402344 123.480469 136.441406 123.898438 136.441406 124.316406 Z M 136.441406 124.316406 " fill-opacity="1" fill-rule="nonzero"/><path fill="#fc4730" d="M 206.996094 203.609375 C 206.996094 204.03125 206.957031 204.445312 206.875 204.859375 C 206.792969 205.269531 206.671875 205.671875 206.511719 206.058594 C 206.347656 206.449219 206.152344 206.816406 205.917969 207.167969 C 205.683594 207.515625 205.417969 207.839844 205.121094 208.136719 C 204.824219 208.433594 204.5 208.699219 204.152344 208.933594 C 203.800781 209.167969 203.433594 209.363281 203.042969 209.527344 C 202.65625 209.6875 202.253906 209.808594 201.84375 209.890625 C 201.429688 209.972656 201.015625 210.011719 200.59375 210.011719 C 200.171875 210.011719 199.757812 209.972656 199.34375 209.890625 C 198.933594 209.808594 198.53125 209.6875 198.144531 209.527344 C 197.753906 209.363281 197.386719 209.167969 197.035156 208.933594 C 196.6875 208.699219 196.363281 208.433594 196.066406 208.136719 C 195.769531 207.839844 195.503906 207.515625 195.269531 207.167969 C 195.035156 206.816406 194.839844 206.449219 194.679688 206.058594 C 194.515625 205.671875 194.394531 205.269531 194.3125 204.859375 C 194.230469 204.445312 194.191406 204.03125 194.191406 203.609375 C 194.191406 203.1875 194.230469 202.773438 194.3125 202.359375 C 194.394531 201.949219 194.515625 201.546875 194.679688 201.160156 C 194.839844 200.769531 195.035156 200.402344 195.269531 200.050781 C 195.503906 199.703125 195.769531 199.378906 196.066406 199.082031 C 196.363281 198.785156 196.6875 198.519531 197.035156 198.285156 C 197.386719 198.050781 197.753906 197.855469 198.144531 197.695312 C 198.53125 197.53125 198.933594 197.410156 199.34375 197.328125 C 199.757812 197.246094 200.171875 197.207031 200.59375 197.207031 C 201.015625 197.207031 201.429688 197.246094 201.84375 197.328125 C 202.253906 197.410156 202.65625 197.53125 203.042969 197.695312 C 203.433594 197.855469 203.800781 198.050781 204.152344 198.285156 C 204.5 198.519531 204.824219 198.785156 205.121094 199.082031 C 205.417969 199.378906 205.683594 199.703125 205.917969 200.050781 C 206.152344 200.402344 206.347656 200.769531 206.511719 201.160156 C 206.671875 201.546875 206.792969 201.949219 206.875 202.359375 C 206.957031 202.773438 206.996094 203.1875 206.996094 203.609375 Z M 206.996094 203.609375 " fill-opacity="1" fill-rule="nonzero"/><path stroke-linecap="round" transform="matrix(0.321815, 0, 0, 0.321815, 123.314044, 70.370129)" fill="none" stroke-linejoin="round" d="M 249.884268 224.159084 C 249.884268 225.809879 249.7993 227.460674 249.641504 229.09933 C 249.471569 230.737987 249.240943 232.376644 248.913212 233.991024 C 248.585481 235.617542 248.18492 237.219784 247.71153 238.79775 C 247.226002 240.375716 246.679784 241.929405 246.048597 243.458818 C 245.405273 244.976092 244.701257 246.469091 243.924413 247.925674 C 243.147568 249.382258 242.297894 250.802427 241.38753 252.174043 C 240.465027 253.545659 239.481833 254.868723 238.437948 256.155372 C 237.381925 257.429883 236.277349 258.65584 235.112082 259.821107 C 233.946815 260.986374 232.720857 262.09095 231.446346 263.146973 C 230.159697 264.190858 228.836634 265.174052 227.465018 266.096555 C 226.093401 267.00692 224.673232 267.856594 223.216649 268.633438 C 221.760065 269.410283 220.267067 270.114299 218.749792 270.757623 C 217.220379 271.388809 215.66669 271.935028 214.088724 272.420556 C 212.510759 272.893946 210.908517 273.294506 209.281998 273.622237 C 207.667618 273.949969 206.028961 274.180595 204.390305 274.350529 C 202.751648 274.508326 201.100853 274.593293 199.450059 274.593293 C 197.799264 274.593293 196.148469 274.508326 194.497674 274.350529 C 192.859018 274.180595 191.232499 273.949969 189.605981 273.622237 C 187.991601 273.294506 186.389358 272.893946 184.799255 272.420556 C 183.221289 271.935028 181.6676 271.388809 180.150325 270.757623 C 178.620912 270.114299 177.127914 269.410283 175.67133 268.633438 C 174.214747 267.856594 172.794578 267.00692 171.422961 266.096555 C 170.051345 265.174052 168.728282 264.190858 167.453771 263.146973 C 166.167122 262.09095 164.953302 260.986374 163.788035 259.821107 C 162.61063 258.65584 161.506054 257.429883 160.462169 256.155372 C 159.406146 254.868723 158.422952 253.545659 157.512588 252.174043 C 156.590085 250.802427 155.740411 249.382258 154.963566 247.925674 C 154.186722 246.469091 153.482706 244.976092 152.85152 243.458818 C 152.220334 241.929405 151.661977 240.375716 151.176449 238.79775 C 150.703059 237.219784 150.302498 235.617542 149.974767 233.991024 C 149.659174 232.376644 149.41641 230.737987 149.258613 229.09933 C 149.088679 227.460674 149.01585 225.809879 149.01585 224.159084 C 149.01585 222.508289 149.088679 220.857495 149.258613 219.2067 C 149.41641 217.568043 149.659174 215.941525 149.974767 214.315006 C 150.302498 212.700626 150.703059 211.098384 151.176449 209.50828 C 151.661977 207.930315 152.220334 206.376625 152.85152 204.859351 C 153.482706 203.329938 154.186722 201.83694 154.963566 200.380356 C 155.740411 198.923772 156.590085 197.503603 157.512588 196.131987 C 158.422952 194.760371 159.406146 193.437307 160.462169 192.162797 C 161.506054 190.876148 162.61063 189.662328 163.788035 188.497061 C 164.953302 187.319656 166.167122 186.21508 167.453771 185.171195 C 168.728282 184.115172 170.051345 183.131978 171.422961 182.221613 C 172.794578 181.29911 174.214747 180.449436 175.67133 179.672592 C 177.127914 178.895747 178.620912 178.191732 180.150325 177.560545 C 181.6676 176.929359 183.221289 176.371002 184.799255 175.885474 C 186.389358 175.412085 187.991601 175.011524 189.605981 174.683793 C 191.232499 174.3682 192.859018 174.125436 194.497674 173.967639 C 196.148469 173.797704 197.799264 173.724875 199.450059 173.724875 C 201.100853 173.724875 202.751648 173.797704 204.390305 173.967639 C 206.028961 174.125436 207.667618 174.3682 209.281998 174.683793 C 210.908517 175.011524 212.510759 175.412085 214.088724 175.885474 C 215.66669 176.371002 217.220379 176.929359 218.749792 177.560545 C 220.267067 178.191732 221.760065 178.895747 223.216649 179.672592 C 224.673232 180.449436 226.093401 181.29911 227.465018 182.221613 C 228.836634 183.131978 230.159697 184.115172 231.446346 185.171195 C 232.720857 186.21508 233.946815 187.319656 235.112082 188.497061 C 236.277349 189.662328 237.381925 190.876148 238.437948 192.162797 C 239.481833 193.437307 240.465027 194.760371 241.38753 196.131987 C 242.297894 197.503603 243.147568 198.923772 243.924413 200.380356 C 244.701257 201.83694 245.405273 203.329938 246.048597 204.859351 C 246.679784 206.376625 247.226002 207.930315 247.71153 209.50828 C 248.18492 211.098384 248.585481 212.700626 248.913212 214.315006 C 249.240943 215.941525 249.471569 217.568043 249.641504 219.2067 C 249.7993 220.857495 249.884268 222.508289 249.884268 224.159084 Z M 249.884268 224.159084 " stroke="#2d334a" stroke-width="2" stroke-opacity="1" stroke-miterlimit="4"/><path stroke-linecap="round" transform="matrix(0.321815, 0, 0, 0.321815, 123.314044, 70.370129)" fill="none" stroke-linejoin="round" d="M 410.484754 104.525013 C 410.484754 105.8238 410.351234 107.122588 410.096331 108.397098 C 409.841429 109.683747 409.465145 110.921843 408.967479 112.135663 C 408.469813 113.337344 407.850765 114.490473 407.122473 115.570773 C 406.394181 116.66321 405.568784 117.670681 404.646281 118.593184 C 403.723778 119.515687 402.716308 120.341084 401.636008 121.069376 C 400.54357 121.78553 399.40258 122.404578 398.200898 122.902244 C 396.987079 123.39991 395.748982 123.776194 394.462334 124.031096 C 393.175685 124.285998 391.889036 124.419518 390.578111 124.419518 C 389.279323 124.419518 387.980536 124.285998 386.693887 124.031096 C 385.419377 123.776194 384.169142 123.39991 382.967461 122.902244 C 381.753641 122.404578 380.612651 121.78553 379.520213 121.069376 C 378.439913 120.341084 377.432443 119.515687 376.50994 118.593184 C 375.587437 117.670681 374.76204 116.66321 374.033748 115.570773 C 373.305456 114.490473 372.698546 113.337344 372.20088 112.135663 C 371.703214 110.921843 371.314792 109.683747 371.05989 108.397098 C 370.804987 107.122588 370.683605 105.8238 370.683605 104.525013 C 370.683605 103.214088 370.804987 101.915301 371.05989 100.64079 C 371.314792 99.354141 371.703214 98.116045 372.20088 96.902226 C 372.698546 95.700544 373.305456 94.547415 374.033748 93.467116 C 374.76204 92.374678 375.587437 91.379346 376.50994 90.444705 C 377.432443 89.522202 378.439913 88.696804 379.520213 87.980651 C 380.612651 87.252359 381.753641 86.633311 382.967461 86.135645 C 384.169142 85.637979 385.419377 85.261695 386.693887 85.006792 C 387.980536 84.75189 389.279323 84.61837 390.578111 84.61837 C 391.889036 84.61837 393.175685 84.75189 394.462334 85.006792 C 395.748982 85.261695 396.987079 85.637979 398.200898 86.135645 C 399.40258 86.633311 400.54357 87.252359 401.636008 87.980651 C 402.716308 88.696804 403.723778 89.522202 404.646281 90.444705 C 405.568784 91.379346 406.394181 92.374678 407.122473 93.467116 C 407.850765 94.547415 408.469813 95.700544 408.967479 96.902226 C 409.465145 98.116045 409.841429 99.354141 410.096331 100.64079 C 410.351234 101.915301 410.484754 103.214088 410.484754 104.525013 Z M 410.484754 104.525013 " stroke="#2d334a" stroke-width="2" stroke-opacity="1" stroke-miterlimit="4"/><path stroke-linecap="round" transform="matrix(0.321815, 0, 0, 0.321815, 123.314044, 70.370129)" fill="none" stroke-linejoin="round" d="M 40.791684 167.6315 C 40.791684 168.942425 40.670302 170.241213 40.4154 171.515723 C 40.160498 172.802372 39.784214 174.040468 39.286548 175.254288 C 38.776743 176.45597 38.169833 177.609098 37.441542 178.689398 C 36.71325 179.781836 35.887852 180.777168 34.965349 181.711809 C 34.042846 182.634312 33.035376 183.459709 31.955076 184.175863 C 30.862639 184.904155 29.721648 185.523203 28.507828 186.020869 C 27.306147 186.518535 26.055913 186.894819 24.781402 187.149721 C 23.494753 187.404623 22.208104 187.538143 20.897179 187.538143 C 19.586254 187.538143 18.299605 187.404623 17.012956 187.149721 C 15.738445 186.894819 14.488211 186.518535 13.286529 186.020869 C 12.07271 185.523203 10.931719 184.904155 9.839281 184.175863 C 8.758982 183.459709 7.751511 182.634312 6.829008 181.711809 C 5.906505 180.777168 5.081108 179.781836 4.352816 178.689398 C 3.624524 177.609098 3.017615 176.45597 2.519948 175.254288 C 2.010144 174.040468 1.63386 172.802372 1.378958 171.515723 C 1.124056 170.241213 1.002674 168.942425 1.002674 167.6315 C 1.002674 166.332713 1.124056 165.033926 1.378958 163.759415 C 1.63386 162.472766 2.010144 161.222532 2.519948 160.020851 C 3.017615 158.819169 3.624524 157.66604 4.352816 156.585741 C 5.081108 155.493303 5.906505 154.485833 6.829008 153.56333 C 7.751511 152.640827 8.758982 151.815429 9.839281 151.087138 C 10.931719 150.370984 12.07271 149.751936 13.286529 149.25427 C 14.488211 148.756604 15.738445 148.38032 17.012956 148.125417 C 18.299605 147.870515 19.586254 147.736995 20.897179 147.736995 C 22.208104 147.736995 23.494753 147.870515 24.781402 148.125417 C 26.055913 148.38032 27.306147 148.756604 28.507828 149.25427 C 29.721648 149.751936 30.862639 150.370984 31.955076 151.087138 C 33.035376 151.815429 34.042846 152.640827 34.965349 153.56333 C 35.887852 154.485833 36.71325 155.493303 37.441542 156.585741 C 38.169833 157.66604 38.776743 158.819169 39.286548 160.020851 C 39.784214 161.222532 40.160498 162.472766 40.4154 163.759415 C 40.670302 165.033926 40.791684 166.332713 40.791684 167.6315 Z M 40.791684 167.6315 " stroke="#2d334a" stroke-width="2" stroke-opacity="1" stroke-miterlimit="4"/><path stroke-linecap="round" transform="matrix(0.321815, 0, 0, 0.321815, 123.314044, 70.370129)" fill="none" stroke-linejoin="round" d="M 260.0318 414.024764 C 260.0318 415.335689 259.910418 416.622338 259.655516 417.908987 C 259.400614 419.183497 259.02433 420.433732 258.526664 421.635413 C 258.01686 422.849233 257.40995 423.990223 256.681658 425.082661 C 255.953366 426.162961 255.127969 427.170431 254.205466 428.092934 C 253.282963 429.015437 252.275492 429.840834 251.195193 430.569126 C 250.102755 431.297418 248.961765 431.904328 247.747945 432.414132 C 246.546263 432.911798 245.296029 433.288082 244.021518 433.542985 C 242.73487 433.797887 241.448221 433.919269 240.137295 433.919269 C 238.82637 433.919269 237.539721 433.797887 236.253072 433.542985 C 234.978562 433.288082 233.728327 432.911798 232.526646 432.414132 C 231.312826 431.904328 230.171836 431.297418 229.079398 430.569126 C 227.999098 429.840834 226.991628 429.015437 226.069125 428.092934 C 225.146622 427.170431 224.321225 426.162961 223.592933 425.082661 C 222.864641 423.990223 222.257731 422.849233 221.760065 421.635413 C 221.250261 420.433732 220.873977 419.183497 220.619074 417.908987 C 220.364172 416.622338 220.24279 415.335689 220.24279 414.024764 C 220.24279 412.713838 220.364172 411.427189 220.619074 410.140541 C 220.873977 408.86603 221.250261 407.615796 221.760065 406.414114 C 222.257731 405.200294 222.864641 404.059304 223.592933 402.966866 C 224.321225 401.886567 225.146622 400.879096 226.069125 399.956593 C 226.991628 399.03409 227.999098 398.208693 229.079398 397.480401 C 230.171836 396.752109 231.312826 396.145199 232.526646 395.647533 C 233.728327 395.137729 234.978562 394.761445 236.253072 394.506543 C 237.539721 394.251641 238.82637 394.130259 240.137295 394.130259 C 241.448221 394.130259 242.73487 394.251641 244.021518 394.506543 C 245.296029 394.761445 246.546263 395.137729 247.747945 395.647533 C 248.961765 396.145199 250.102755 396.752109 251.195193 397.480401 C 252.275492 398.208693 253.282963 399.03409 254.205466 399.956593 C 255.127969 400.879096 255.953366 401.886567 256.681658 402.966866 C 257.40995 404.059304 258.01686 405.200294 258.526664 406.414114 C 259.02433 407.615796 259.400614 408.86603 259.655516 410.140541 C 259.910418 411.427189 260.0318 412.713838 260.0318 414.024764 Z M 260.0318 414.024764 " stroke="#2d334a" stroke-width="2" stroke-opacity="1" stroke-miterlimit="4"/><g clip-path="url(#fb33e34f0c)"><path fill="#ffca43" d="M 106.277344 280.628906 L 107.066406 280.628906 L 107.703125 280.691406 C 107.714844 280.695312 107.722656 280.695312 107.730469 280.699219 C 107.769531 280.71875 107.835938 280.734375 107.9375 280.75 C 108.3125 280.800781 108.703125 280.953125 109.105469 281.195312 C 109.71875 281.566406 109.871094 282.25 109.800781 282.933594 C 109.792969 283.011719 109.800781 283.054688 109.867188 283.105469 C 110.296875 283.410156 110.691406 283.742188 111.054688 284.101562 C 111.078125 284.125 111.101562 284.132812 111.132812 284.132812 L 125.519531 284.132812 C 125.566406 284.132812 125.609375 284.117188 125.640625 284.082031 C 125.984375 283.734375 126.355469 283.417969 126.753906 283.136719 C 126.792969 283.109375 126.8125 283.074219 126.8125 283.027344 C 126.808594 282.695312 126.777344 282.296875 126.871094 282 C 127.226562 280.90625 128.773438 280.6875 129.742188 280.628906 L 130.363281 280.628906 C 131.359375 280.714844 132.671875 280.871094 133.09375 281.945312 C 133.21875 282.261719 133.183594 282.710938 133.203125 283.066406 C 133.203125 283.085938 133.214844 283.101562 133.230469 283.117188 C 134.378906 283.964844 135.195312 284.949219 135.640625 286.3125 C 135.722656 286.550781 135.8125 286.9375 135.914062 287.46875 C 136.71875 291.605469 137.53125 295.746094 138.347656 299.882812 C 138.421875 300.261719 138.480469 300.648438 138.519531 301.035156 L 138.519531 301.464844 C 138.375 303.597656 136.96875 305.402344 134.851562 305.863281 C 134.578125 305.921875 134.289062 305.933594 134 305.949219 L 133.867188 305.949219 C 132.527344 305.855469 131.300781 305.054688 130.636719 303.890625 C 129.40625 301.722656 128.191406 299.542969 126.992188 297.355469 C 126.984375 297.339844 126.96875 297.335938 126.953125 297.351562 C 125.886719 298.347656 124.660156 298.820312 123.214844 298.527344 C 122.074219 298.296875 121.171875 297.527344 120.585938 296.550781 C 120.566406 296.515625 120.535156 296.5 120.496094 296.5 L 116.039062 296.5 C 116.007812 296.5 115.984375 296.511719 115.964844 296.539062 C 115.132812 297.871094 113.914062 298.675781 112.332031 298.601562 C 111.304688 298.554688 110.382812 298.121094 109.691406 297.359375 C 109.660156 297.324219 109.632812 297.328125 109.613281 297.367188 C 108.398438 299.542969 107.191406 301.71875 105.988281 303.890625 C 104.8125 306.015625 102.230469 306.550781 100.253906 305.167969 C 99.078125 304.347656 98.402344 303.21875 98.21875 301.785156 L 98.21875 300.878906 C 98.25 300.574219 98.285156 300.324219 98.324219 300.125 C 99.128906 295.964844 99.929688 291.804688 100.722656 287.644531 C 100.832031 287.078125 100.917969 286.691406 100.976562 286.484375 C 101.371094 285.125 102.15625 284.027344 103.332031 283.199219 C 103.371094 283.167969 103.390625 283.128906 103.390625 283.078125 C 103.386719 282.855469 103.394531 282.628906 103.414062 282.394531 C 103.527344 280.960938 105.15625 280.726562 106.277344 280.628906 Z M 130.175781 286.640625 C 130.339844 286.621094 130.496094 286.566406 130.640625 286.480469 C 130.785156 286.394531 130.910156 286.285156 131.011719 286.148438 C 131.113281 286.011719 131.1875 285.863281 131.226562 285.699219 C 131.269531 285.53125 131.28125 285.363281 131.257812 285.195312 C 131.234375 285.027344 131.183594 284.867188 131.097656 284.71875 C 131.011719 284.570312 130.902344 284.445312 130.769531 284.339844 C 130.636719 284.234375 130.488281 284.160156 130.328125 284.117188 C 130.164062 284.070312 130 284.0625 129.832031 284.082031 C 129.667969 284.105469 129.511719 284.160156 129.367188 284.246094 C 129.222656 284.328125 129.097656 284.441406 128.996094 284.578125 C 128.894531 284.710938 128.824219 284.863281 128.78125 285.027344 C 128.738281 285.191406 128.726562 285.359375 128.75 285.53125 C 128.773438 285.699219 128.824219 285.859375 128.910156 286.007812 C 128.996094 286.15625 129.105469 286.28125 129.238281 286.386719 C 129.371094 286.492188 129.519531 286.566406 129.683594 286.609375 C 129.84375 286.652344 130.007812 286.664062 130.175781 286.640625 Z M 103.816406 287.296875 C 103.769531 287.335938 103.75 287.386719 103.75 287.445312 L 103.75 288.863281 C 103.75 288.886719 103.753906 288.90625 103.765625 288.925781 C 103.882812 289.113281 104.019531 289.179688 104.25 289.179688 C 104.761719 289.183594 105.269531 289.1875 105.78125 289.1875 C 105.804688 289.1875 105.8125 289.199219 105.8125 289.21875 L 105.835938 291.039062 C 105.832031 291.050781 105.835938 291.0625 105.84375 291.074219 C 105.960938 291.238281 106.085938 291.308594 106.300781 291.308594 C 106.582031 291.3125 106.863281 291.316406 107.144531 291.324219 C 107.488281 291.332031 107.804688 291.265625 107.796875 290.867188 C 107.785156 290.316406 107.785156 289.765625 107.792969 289.214844 C 107.792969 289.195312 107.804688 289.183594 107.824219 289.183594 C 108.320312 289.171875 108.816406 289.171875 109.3125 289.191406 C 109.425781 289.195312 109.679688 289.125 109.75 289.035156 C 109.898438 288.839844 109.828125 288.332031 109.828125 288.128906 C 109.828125 287.742188 109.984375 287.175781 109.378906 287.171875 C 108.851562 287.164062 108.335938 287.164062 107.832031 287.167969 C 107.789062 287.167969 107.765625 287.144531 107.761719 287.101562 C 107.742188 286.535156 107.730469 285.972656 107.730469 285.410156 C 107.730469 285.132812 107.539062 284.953125 107.265625 284.957031 C 106.910156 284.960938 106.558594 284.96875 106.203125 284.972656 C 105.964844 284.976562 105.777344 285.097656 105.765625 285.359375 C 105.738281 285.898438 105.777344 286.363281 105.765625 287.132812 C 105.765625 287.152344 105.753906 287.164062 105.730469 287.164062 C 105.238281 287.167969 104.746094 287.167969 104.257812 287.167969 C 104.078125 287.164062 103.941406 287.195312 103.816406 287.296875 Z M 126.871094 289.710938 C 127.039062 289.707031 127.199219 289.671875 127.355469 289.605469 C 127.507812 289.539062 127.644531 289.441406 127.761719 289.320312 C 127.878906 289.199219 127.96875 289.058594 128.027344 288.898438 C 128.089844 288.738281 128.121094 288.574219 128.117188 288.402344 C 128.113281 288.234375 128.078125 288.070312 128.011719 287.914062 C 127.945312 287.757812 127.851562 287.617188 127.734375 287.5 C 127.613281 287.378906 127.472656 287.289062 127.316406 287.226562 C 127.160156 287.164062 127 287.132812 126.832031 287.136719 C 126.664062 287.140625 126.503906 287.175781 126.347656 287.242188 C 126.195312 287.308594 126.058594 287.40625 125.941406 287.527344 C 125.828125 287.648438 125.738281 287.789062 125.675781 287.949219 C 125.613281 288.109375 125.585938 288.273438 125.585938 288.445312 C 125.589844 288.613281 125.625 288.777344 125.691406 288.933594 C 125.757812 289.089844 125.851562 289.230469 125.972656 289.347656 C 126.09375 289.46875 126.230469 289.558594 126.386719 289.621094 C 126.542969 289.683594 126.703125 289.714844 126.871094 289.710938 Z M 133.238281 289.71875 C 133.40625 289.714844 133.570312 289.683594 133.722656 289.617188 C 133.878906 289.546875 134.015625 289.453125 134.132812 289.332031 C 134.25 289.210938 134.339844 289.070312 134.402344 288.910156 C 134.464844 288.75 134.496094 288.585938 134.496094 288.414062 C 134.496094 288.242188 134.460938 288.078125 134.394531 287.921875 C 134.328125 287.761719 134.238281 287.625 134.117188 287.503906 C 133.996094 287.382812 133.859375 287.292969 133.703125 287.226562 C 133.546875 287.164062 133.386719 287.132812 133.21875 287.132812 C 133.046875 287.136719 132.886719 287.167969 132.734375 287.234375 C 132.578125 287.304688 132.441406 287.398438 132.324219 287.519531 C 132.207031 287.640625 132.117188 287.78125 132.050781 287.941406 C 131.988281 288.101562 131.957031 288.265625 131.960938 288.4375 C 131.960938 288.609375 131.996094 288.773438 132.0625 288.929688 C 132.125 289.089844 132.21875 289.226562 132.339844 289.347656 C 132.460938 289.46875 132.597656 289.558594 132.753906 289.625 C 132.910156 289.6875 133.070312 289.71875 133.238281 289.71875 Z M 122.929688 288.683594 C 122.929688 288.539062 122.878906 288.417969 122.78125 288.320312 C 122.679688 288.21875 122.558594 288.167969 122.414062 288.167969 L 120.835938 288.171875 C 120.695312 288.171875 120.574219 288.222656 120.472656 288.324219 C 120.371094 288.421875 120.320312 288.542969 120.324219 288.6875 L 120.324219 288.734375 C 120.324219 288.875 120.375 288.996094 120.472656 289.097656 C 120.574219 289.195312 120.695312 289.246094 120.835938 289.246094 L 122.417969 289.242188 C 122.558594 289.242188 122.679688 289.191406 122.78125 289.09375 C 122.882812 288.992188 122.929688 288.871094 122.929688 288.726562 Z M 114.179688 288.191406 C 113.648438 288.199219 113.539062 288.898438 113.945312 289.152344 C 114.039062 289.210938 114.191406 289.242188 114.40625 289.246094 C 114.875 289.246094 115.34375 289.242188 115.8125 289.230469 C 116.507812 289.214844 116.4375 288.175781 115.800781 288.175781 C 115.257812 288.175781 114.71875 288.179688 114.179688 288.191406 Z M 130.226562 290.207031 C 129.445312 290.050781 128.644531 290.753906 128.734375 291.574219 C 128.816406 292.300781 129.386719 292.847656 130.148438 292.773438 C 131.578125 292.628906 131.683594 290.503906 130.226562 290.207031 Z M 112.855469 291.304688 C 111.460938 291.058594 110.136719 292.203125 110.050781 293.582031 C 109.96875 294.929688 110.929688 296.101562 112.292969 296.21875 C 114.007812 296.367188 115.335938 294.699219 114.84375 293.046875 C 114.566406 292.125 113.792969 291.472656 112.855469 291.304688 Z M 121.597656 293.46875 C 121.351562 295.671875 123.9375 297.117188 125.648438 295.617188 C 127.253906 294.207031 126.425781 291.542969 124.300781 291.292969 C 122.972656 291.136719 121.746094 292.125 121.597656 293.46875 Z M 121.597656 293.46875 " fill-opacity="1" fill-rule="nonzero"/></g><g fill="#21266e" fill-opacity="0.4"><g transform="translate(90.513177, 265.214044)"><g><path d="M 14.796875 0.40625 C 6.023438 0.40625 1.640625 -4.394531 1.640625 -14 C 1.640625 -23.601562 6.023438 -28.40625 14.796875 -28.40625 C 23.546875 -28.40625 27.921875 -23.601562 27.921875 -14 C 27.921875 -8.289062 26.375 -4.273438 23.28125 -1.953125 L 24.921875 0.640625 C 25.265625 1.148438 25.4375 1.722656 25.4375 2.359375 C 25.4375 2.867188 25.328125 3.34375 25.109375 3.78125 C 24.898438 4.21875 24.570312 4.582031 24.125 4.875 C 23.582031 5.226562 22.992188 5.40625 22.359375 5.40625 C 21.242188 5.40625 20.378906 4.9375 19.765625 4 L 17.15625 0.28125 C 16.414062 0.363281 15.628906 0.40625 14.796875 0.40625 Z M 8.4375 -14 C 8.4375 -10.71875 8.984375 -8.394531 10.078125 -7.03125 C 11.171875 -5.675781 12.742188 -5 14.796875 -5 C 16.847656 -5 18.414062 -5.675781 19.5 -7.03125 C 20.582031 -8.394531 21.125 -10.71875 21.125 -14 C 21.125 -17.28125 20.582031 -19.597656 19.5 -20.953125 C 18.414062 -22.316406 16.847656 -23 14.796875 -23 C 12.742188 -23 11.171875 -22.3125 10.078125 -20.9375 C 8.984375 -19.5625 8.4375 -17.25 8.4375 -14 Z M 8.4375 -14 "/></g></g></g><g fill="#21266e" fill-opacity="0.4"><g transform="translate(120.070243, 265.214044)"><g><path d="M 14.515625 0.40625 C 10.546875 0.40625 7.523438 -0.515625 5.453125 -2.359375 C 3.390625 -4.203125 2.359375 -6.851562 2.359375 -10.3125 L 2.359375 -25.234375 C 2.359375 -27.347656 3.492188 -28.40625 5.765625 -28.40625 C 8.023438 -28.40625 9.15625 -27.347656 9.15625 -25.234375 L 9.15625 -9.796875 C 9.15625 -8.253906 9.640625 -7.066406 10.609375 -6.234375 C 11.585938 -5.410156 12.890625 -5 14.515625 -5 C 16.171875 -5 17.472656 -5.410156 18.421875 -6.234375 C 19.367188 -7.066406 19.84375 -8.253906 19.84375 -9.796875 L 19.84375 -25.234375 C 19.84375 -27.347656 20.972656 -28.40625 23.234375 -28.40625 C 25.503906 -28.40625 26.640625 -27.347656 26.640625 -25.234375 L 26.640625 -10.3125 C 26.640625 -6.851562 25.613281 -4.203125 23.5625 -2.359375 C 21.507812 -0.515625 18.492188 0.40625 14.515625 0.40625 Z M 14.515625 0.40625 "/></g></g></g><g fill="#21266e" fill-opacity="0.4"><g transform="translate(149.067362, 265.214044)"><g><path d="M 2.125 0.125 C 1.457031 -0.164062 0.941406 -0.59375 0.578125 -1.15625 C 0.222656 -1.71875 0.046875 -2.332031 0.046875 -3 C 0.046875 -3.457031 0.125 -3.882812 0.28125 -4.28125 L 8 -25.078125 C 8.394531 -26.148438 9.003906 -26.972656 9.828125 -27.546875 C 10.660156 -28.117188 11.785156 -28.40625 13.203125 -28.40625 C 14.640625 -28.40625 15.757812 -28.101562 16.5625 -27.5 C 17.363281 -26.894531 17.960938 -26.085938 18.359375 -25.078125 L 26 -4.28125 C 26.15625 -3.851562 26.234375 -3.425781 26.234375 -3 C 26.234375 -2.332031 26.050781 -1.71875 25.6875 -1.15625 C 25.332031 -0.59375 24.835938 -0.164062 24.203125 0.125 C 23.773438 0.28125 23.347656 0.359375 22.921875 0.359375 C 22.253906 0.359375 21.632812 0.179688 21.0625 -0.171875 C 20.488281 -0.535156 20.066406 -1.050781 19.796875 -1.71875 L 18.203125 -6.234375 L 8.125 -6.234375 L 6.515625 -1.71875 C 6.253906 -1.050781 5.84375 -0.535156 5.28125 -0.171875 C 4.71875 0.179688 4.09375 0.359375 3.40625 0.359375 C 3 0.359375 2.570312 0.28125 2.125 0.125 Z M 10.078125 -11.640625 L 16.234375 -11.640625 L 13.15625 -20.3125 Z M 10.078125 -11.640625 "/></g></g></g><g fill="#21266e" fill-opacity="0.4"><g transform="translate(175.384743, 265.214044)"><g><path d="M 5.765625 0.40625 C 3.492188 0.40625 2.359375 -0.660156 2.359375 -2.796875 L 2.359375 -24.484375 C 2.359375 -25.578125 2.710938 -26.503906 3.421875 -27.265625 C 4.128906 -28.023438 5.160156 -28.40625 6.515625 -28.40625 C 7.773438 -28.425781 8.769531 -28.222656 9.5 -27.796875 C 10.226562 -27.367188 10.832031 -26.726562 11.3125 -25.875 L 19.875 -10.765625 L 19.875 -25.28125 C 19.875 -27.363281 21.007812 -28.40625 23.28125 -28.40625 C 25.550781 -28.40625 26.6875 -27.363281 26.6875 -25.28125 L 26.6875 -3.515625 C 26.6875 -2.421875 26.332031 -1.492188 25.625 -0.734375 C 24.914062 0.0234375 23.878906 0.40625 22.515625 0.40625 C 21.234375 0.425781 20.234375 0.222656 19.515625 -0.203125 C 18.796875 -0.628906 18.195312 -1.28125 17.71875 -2.15625 L 9.15625 -17.234375 L 9.15625 -2.796875 C 9.15625 -0.660156 8.023438 0.40625 5.765625 0.40625 Z M 5.765625 0.40625 "/></g></g></g><g fill="#21266e" fill-opacity="0.4"><g transform="translate(204.381861, 265.214044)"><g><path d="M 12.203125 0.40625 C 9.910156 0.40625 8.765625 -0.648438 8.765625 -2.765625 L 8.765625 -22.59375 L 2.71875 -22.59375 C 0.90625 -22.59375 0 -23.488281 0 -25.28125 C 0 -27.09375 0.90625 -28 2.71875 -28 L 21.640625 -28 C 23.453125 -28 24.359375 -27.09375 24.359375 -25.28125 C 24.359375 -23.488281 23.453125 -22.59375 21.640625 -22.59375 L 15.5625 -22.59375 L 15.5625 -2.765625 C 15.5625 -0.648438 14.441406 0.40625 12.203125 0.40625 Z M 12.203125 0.40625 "/></g></g></g><g fill="#21266e" fill-opacity="0.4"><g transform="translate(228.739442, 265.214044)"><g><path d="M 14.515625 0.40625 C 10.546875 0.40625 7.523438 -0.515625 5.453125 -2.359375 C 3.390625 -4.203125 2.359375 -6.851562 2.359375 -10.3125 L 2.359375 -25.234375 C 2.359375 -27.347656 3.492188 -28.40625 5.765625 -28.40625 C 8.023438 -28.40625 9.15625 -27.347656 9.15625 -25.234375 L 9.15625 -9.796875 C 9.15625 -8.253906 9.640625 -7.066406 10.609375 -6.234375 C 11.585938 -5.410156 12.890625 -5 14.515625 -5 C 16.171875 -5 17.472656 -5.410156 18.421875 -6.234375 C 19.367188 -7.066406 19.84375 -8.253906 19.84375 -9.796875 L 19.84375 -25.234375 C 19.84375 -27.347656 20.972656 -28.40625 23.234375 -28.40625 C 25.503906 -28.40625 26.640625 -27.347656 26.640625 -25.234375 L 26.640625 -10.3125 C 26.640625 -6.851562 25.613281 -4.203125 23.5625 -2.359375 C 21.507812 -0.515625 18.492188 0.40625 14.515625 0.40625 Z M 14.515625 0.40625 "/></g></g></g><g fill="#21266e" fill-opacity="0.4"><g transform="translate(257.73656, 265.214044)"><g><path d="M 5.765625 0.40625 C 3.492188 0.40625 2.359375 -0.648438 2.359375 -2.765625 L 2.359375 -23.796875 C 2.359375 -25.054688 2.804688 -26.140625 3.703125 -27.046875 C 4.597656 -27.953125 5.925781 -28.40625 7.6875 -28.40625 C 9.257812 -28.40625 10.441406 -28.054688 11.234375 -27.359375 C 12.035156 -26.660156 12.597656 -25.675781 12.921875 -24.40625 L 16.921875 -9.15625 L 20.875 -24.40625 C 21.195312 -25.675781 21.757812 -26.660156 22.5625 -27.359375 C 23.363281 -28.054688 24.535156 -28.40625 26.078125 -28.40625 C 27.867188 -28.40625 29.207031 -27.953125 30.09375 -27.046875 C 30.988281 -26.140625 31.4375 -25.054688 31.4375 -23.796875 L 31.4375 -2.765625 C 31.4375 -0.648438 30.304688 0.40625 28.046875 0.40625 C 25.773438 0.40625 24.640625 -0.648438 24.640625 -2.765625 L 24.640625 -18.40625 L 20.515625 -2.359375 C 20.066406 -0.515625 18.851562 0.40625 16.875 0.40625 C 15.757812 0.40625 14.925781 0.144531 14.375 -0.375 C 13.832031 -0.894531 13.453125 -1.570312 13.234375 -2.40625 L 9.15625 -18.359375 L 9.15625 -2.765625 C 9.15625 -0.648438 8.023438 0.40625 5.765625 0.40625 Z M 5.765625 0.40625 "/></g></g></g><g fill="#21266e" fill-opacity="1"><g transform="translate(86.977675, 261.678542)"><g><path d="M 14.796875 0.40625 C 6.023438 0.40625 1.640625 -4.394531 1.640625 -14 C 1.640625 -23.601562 6.023438 -28.40625 14.796875 -28.40625 C 23.546875 -28.40625 27.921875 -23.601562 27.921875 -14 C 27.921875 -8.289062 26.375 -4.273438 23.28125 -1.953125 L 24.921875 0.640625 C 25.265625 1.148438 25.4375 1.722656 25.4375 2.359375 C 25.4375 2.867188 25.328125 3.34375 25.109375 3.78125 C 24.898438 4.21875 24.570312 4.582031 24.125 4.875 C 23.582031 5.226562 22.992188 5.40625 22.359375 5.40625 C 21.242188 5.40625 20.378906 4.9375 19.765625 4 L 17.15625 0.28125 C 16.414062 0.363281 15.628906 0.40625 14.796875 0.40625 Z M 8.4375 -14 C 8.4375 -10.71875 8.984375 -8.394531 10.078125 -7.03125 C 11.171875 -5.675781 12.742188 -5 14.796875 -5 C 16.847656 -5 18.414062 -5.675781 19.5 -7.03125 C 20.582031 -8.394531 21.125 -10.71875 21.125 -14 C 21.125 -17.28125 20.582031 -19.597656 19.5 -20.953125 C 18.414062 -22.316406 16.847656 -23 14.796875 -23 C 12.742188 -23 11.171875 -22.3125 10.078125 -20.9375 C 8.984375 -19.5625 8.4375 -17.25 8.4375 -14 Z M 8.4375 -14 "/></g></g></g><g fill="#21266e" fill-opacity="1"><g transform="translate(116.534741, 261.678542)"><g><path d="M 14.515625 0.40625 C 10.546875 0.40625 7.523438 -0.515625 5.453125 -2.359375 C 3.390625 -4.203125 2.359375 -6.851562 2.359375 -10.3125 L 2.359375 -25.234375 C 2.359375 -27.347656 3.492188 -28.40625 5.765625 -28.40625 C 8.023438 -28.40625 9.15625 -27.347656 9.15625 -25.234375 L 9.15625 -9.796875 C 9.15625 -8.253906 9.640625 -7.066406 10.609375 -6.234375 C 11.585938 -5.410156 12.890625 -5 14.515625 -5 C 16.171875 -5 17.472656 -5.410156 18.421875 -6.234375 C 19.367188 -7.066406 19.84375 -8.253906 19.84375 -9.796875 L 19.84375 -25.234375 C 19.84375 -27.347656 20.972656 -28.40625 23.234375 -28.40625 C 25.503906 -28.40625 26.640625 -27.347656 26.640625 -25.234375 L 26.640625 -10.3125 C 26.640625 -6.851562 25.613281 -4.203125 23.5625 -2.359375 C 21.507812 -0.515625 18.492188 0.40625 14.515625 0.40625 Z M 14.515625 0.40625 "/></g></g></g><g fill="#21266e" fill-opacity="1"><g transform="translate(145.53186, 261.678542)"><g><path d="M 2.125 0.125 C 1.457031 -0.164062 0.941406 -0.59375 0.578125 -1.15625 C 0.222656 -1.71875 0.046875 -2.332031 0.046875 -3 C 0.046875 -3.457031 0.125 -3.882812 0.28125 -4.28125 L 8 -25.078125 C 8.394531 -26.148438 9.003906 -26.972656 9.828125 -27.546875 C 10.660156 -28.117188 11.785156 -28.40625 13.203125 -28.40625 C 14.640625 -28.40625 15.757812 -28.101562 16.5625 -27.5 C 17.363281 -26.894531 17.960938 -26.085938 18.359375 -25.078125 L 26 -4.28125 C 26.15625 -3.851562 26.234375 -3.425781 26.234375 -3 C 26.234375 -2.332031 26.050781 -1.71875 25.6875 -1.15625 C 25.332031 -0.59375 24.835938 -0.164062 24.203125 0.125 C 23.773438 0.28125 23.347656 0.359375 22.921875 0.359375 C 22.253906 0.359375 21.632812 0.179688 21.0625 -0.171875 C 20.488281 -0.535156 20.066406 -1.050781 19.796875 -1.71875 L 18.203125 -6.234375 L 8.125 -6.234375 L 6.515625 -1.71875 C 6.253906 -1.050781 5.84375 -0.535156 5.28125 -0.171875 C 4.71875 0.179688 4.09375 0.359375 3.40625 0.359375 C 3 0.359375 2.570312 0.28125 2.125 0.125 Z M 10.078125 -11.640625 L 16.234375 -11.640625 L 13.15625 -20.3125 Z M 10.078125 -11.640625 "/></g></g></g><g fill="#21266e" fill-opacity="1"><g transform="translate(171.849241, 261.678542)"><g><path d="M 5.765625 0.40625 C 3.492188 0.40625 2.359375 -0.660156 2.359375 -2.796875 L 2.359375 -24.484375 C 2.359375 -25.578125 2.710938 -26.503906 3.421875 -27.265625 C 4.128906 -28.023438 5.160156 -28.40625 6.515625 -28.40625 C 7.773438 -28.425781 8.769531 -28.222656 9.5 -27.796875 C 10.226562 -27.367188 10.832031 -26.726562 11.3125 -25.875 L 19.875 -10.765625 L 19.875 -25.28125 C 19.875 -27.363281 21.007812 -28.40625 23.28125 -28.40625 C 25.550781 -28.40625 26.6875 -27.363281 26.6875 -25.28125 L 26.6875 -3.515625 C 26.6875 -2.421875 26.332031 -1.492188 25.625 -0.734375 C 24.914062 0.0234375 23.878906 0.40625 22.515625 0.40625 C 21.234375 0.425781 20.234375 0.222656 19.515625 -0.203125 C 18.796875 -0.628906 18.195312 -1.28125 17.71875 -2.15625 L 9.15625 -17.234375 L 9.15625 -2.796875 C 9.15625 -0.660156 8.023438 0.40625 5.765625 0.40625 Z M 5.765625 0.40625 "/></g></g></g><g fill="#21266e" fill-opacity="1"><g transform="translate(200.846359, 261.678542)"><g><path d="M 12.203125 0.40625 C 9.910156 0.40625 8.765625 -0.648438 8.765625 -2.765625 L 8.765625 -22.59375 L 2.71875 -22.59375 C 0.90625 -22.59375 0 -23.488281 0 -25.28125 C 0 -27.09375 0.90625 -28 2.71875 -28 L 21.640625 -28 C 23.453125 -28 24.359375 -27.09375 24.359375 -25.28125 C 24.359375 -23.488281 23.453125 -22.59375 21.640625 -22.59375 L 15.5625 -22.59375 L 15.5625 -2.765625 C 15.5625 -0.648438 14.441406 0.40625 12.203125 0.40625 Z M 12.203125 0.40625 "/></g></g></g><g fill="#21266e" fill-opacity="1"><g transform="translate(225.20394, 261.678542)"><g><path d="M 14.515625 0.40625 C 10.546875 0.40625 7.523438 -0.515625 5.453125 -2.359375 C 3.390625 -4.203125 2.359375 -6.851562 2.359375 -10.3125 L 2.359375 -25.234375 C 2.359375 -27.347656 3.492188 -28.40625 5.765625 -28.40625 C 8.023438 -28.40625 9.15625 -27.347656 9.15625 -25.234375 L 9.15625 -9.796875 C 9.15625 -8.253906 9.640625 -7.066406 10.609375 -6.234375 C 11.585938 -5.410156 12.890625 -5 14.515625 -5 C 16.171875 -5 17.472656 -5.410156 18.421875 -6.234375 C 19.367188 -7.066406 19.84375 -8.253906 19.84375 -9.796875 L 19.84375 -25.234375 C 19.84375 -27.347656 20.972656 -28.40625 23.234375 -28.40625 C 25.503906 -28.40625 26.640625 -27.347656 26.640625 -25.234375 L 26.640625 -10.3125 C 26.640625 -6.851562 25.613281 -4.203125 23.5625 -2.359375 C 21.507812 -0.515625 18.492188 0.40625 14.515625 0.40625 Z M 14.515625 0.40625 "/></g></g></g><g fill="#21266e" fill-opacity="1"><g transform="translate(254.201058, 261.678542)"><g><path d="M 5.765625 0.40625 C 3.492188 0.40625 2.359375 -0.648438 2.359375 -2.765625 L 2.359375 -23.796875 C 2.359375 -25.054688 2.804688 -26.140625 3.703125 -27.046875 C 4.597656 -27.953125 5.925781 -28.40625 7.6875 -28.40625 C 9.257812 -28.40625 10.441406 -28.054688 11.234375 -27.359375 C 12.035156 -26.660156 12.597656 -25.675781 12.921875 -24.40625 L 16.921875 -9.15625 L 20.875 -24.40625 C 21.195312 -25.675781 21.757812 -26.660156 22.5625 -27.359375 C 23.363281 -28.054688 24.535156 -28.40625 26.078125 -28.40625 C 27.867188 -28.40625 29.207031 -27.953125 30.09375 -27.046875 C 30.988281 -26.140625 31.4375 -25.054688 31.4375 -23.796875 L 31.4375 -2.765625 C 31.4375 -0.648438 30.304688 0.40625 28.046875 0.40625 C 25.773438 0.40625 24.640625 -0.648438 24.640625 -2.765625 L 24.640625 -18.40625 L 20.515625 -2.359375 C 20.066406 -0.515625 18.851562 0.40625 16.875 0.40625 C 15.757812 0.40625 14.925781 0.144531 14.375 -0.375 C 13.832031 -0.894531 13.453125 -1.570312 13.234375 -2.40625 L 9.15625 -18.359375 L 9.15625 -2.765625 C 9.15625 -0.648438 8.023438 0.40625 5.765625 0.40625 Z M 5.765625 0.40625 "/></g></g></g><g fill="#21266e" fill-opacity="0.4"><g transform="translate(149.873784, 303.30291)"><g><path d="M 8.578125 0.25 C 6.003906 0.25 4.101562 -0.550781 2.875 -2.15625 C 1.644531 -3.769531 1.03125 -5.976562 1.03125 -8.78125 C 1.03125 -10.625 1.304688 -12.21875 1.859375 -13.5625 C 2.421875 -14.90625 3.304688 -15.9375 4.515625 -16.65625 C 5.722656 -17.382812 7.289062 -17.75 9.21875 -17.75 C 11.039062 -17.75 12.507812 -17.441406 13.625 -16.828125 C 14.738281 -16.210938 15.628906 -15.34375 16.296875 -14.21875 C 16.398438 -14.070312 16.472656 -13.914062 16.515625 -13.75 C 16.554688 -13.582031 16.578125 -13.414062 16.578125 -13.25 C 16.578125 -12.96875 16.515625 -12.691406 16.390625 -12.421875 C 16.265625 -12.160156 16.082031 -11.945312 15.84375 -11.78125 C 15.476562 -11.53125 15.097656 -11.40625 14.703125 -11.40625 C 14.117188 -11.40625 13.648438 -11.628906 13.296875 -12.078125 C 12.710938 -12.921875 12.132812 -13.523438 11.5625 -13.890625 C 10.988281 -14.265625 10.300781 -14.453125 9.5 -14.453125 C 8.132812 -14.453125 7.085938 -13.953125 6.359375 -12.953125 C 5.640625 -11.953125 5.28125 -10.5625 5.28125 -8.78125 C 5.28125 -6.945312 5.65625 -5.535156 6.40625 -4.546875 C 7.164062 -3.566406 8.238281 -3.078125 9.625 -3.078125 C 10.289062 -3.078125 10.875 -3.179688 11.375 -3.390625 C 11.875 -3.597656 12.304688 -3.875 12.671875 -4.21875 L 12.671875 -6.875 L 10.125 -6.875 C 9.09375 -6.875 8.578125 -7.390625 8.578125 -8.421875 C 8.578125 -9.441406 9.09375 -9.953125 10.125 -9.953125 L 15.171875 -9.953125 C 15.703125 -9.953125 16.125 -9.789062 16.4375 -9.46875 C 16.757812 -9.15625 16.921875 -8.734375 16.921875 -8.203125 L 16.921875 -1.578125 C 16.921875 -0.359375 16.269531 0.25 14.96875 0.25 C 13.84375 0.25 13.203125 -0.191406 13.046875 -1.078125 C 12.484375 -0.691406 11.828125 -0.375 11.078125 -0.125 C 10.335938 0.125 9.503906 0.25 8.578125 0.25 Z M 8.578125 0.25 "/></g></g></g><g fill="#21266e" fill-opacity="0.4"><g transform="translate(168.245876, 303.30291)"><g><path d="M 1.328125 0.078125 C 0.910156 -0.109375 0.585938 -0.375 0.359375 -0.71875 C 0.140625 -1.070312 0.03125 -1.457031 0.03125 -1.875 C 0.03125 -2.15625 0.078125 -2.421875 0.171875 -2.671875 L 5 -15.671875 C 5.25 -16.335938 5.628906 -16.847656 6.140625 -17.203125 C 6.660156 -17.566406 7.363281 -17.75 8.25 -17.75 C 9.144531 -17.75 9.84375 -17.5625 10.34375 -17.1875 C 10.84375 -16.8125 11.21875 -16.304688 11.46875 -15.671875 L 16.25 -2.671875 C 16.351562 -2.410156 16.40625 -2.144531 16.40625 -1.875 C 16.40625 -1.457031 16.289062 -1.070312 16.0625 -0.71875 C 15.832031 -0.375 15.519531 -0.109375 15.125 0.078125 C 14.851562 0.171875 14.585938 0.21875 14.328125 0.21875 C 13.910156 0.21875 13.519531 0.109375 13.15625 -0.109375 C 12.800781 -0.335938 12.539062 -0.660156 12.375 -1.078125 L 11.375 -3.90625 L 5.078125 -3.90625 L 4.078125 -1.078125 C 3.910156 -0.660156 3.648438 -0.335938 3.296875 -0.109375 C 2.953125 0.109375 2.5625 0.21875 2.125 0.21875 C 1.875 0.21875 1.609375 0.171875 1.328125 0.078125 Z M 6.296875 -7.28125 L 10.15625 -7.28125 L 8.21875 -12.703125 Z M 6.296875 -7.28125 "/></g></g></g><g fill="#21266e" fill-opacity="0.4"><g transform="translate(184.693266, 303.30291)"><g><path d="M 3.59375 0.25 C 2.175781 0.25 1.46875 -0.40625 1.46875 -1.71875 L 1.46875 -14.875 C 1.46875 -15.65625 1.75 -16.328125 2.3125 -16.890625 C 2.875 -17.460938 3.703125 -17.75 4.796875 -17.75 C 5.785156 -17.75 6.53125 -17.53125 7.03125 -17.09375 C 7.53125 -16.664062 7.878906 -16.050781 8.078125 -15.25 L 10.578125 -5.71875 L 13.046875 -15.25 C 13.242188 -16.050781 13.59375 -16.664062 14.09375 -17.09375 C 14.59375 -17.53125 15.328125 -17.75 16.296875 -17.75 C 17.410156 -17.75 18.25 -17.460938 18.8125 -16.890625 C 19.375 -16.328125 19.65625 -15.65625 19.65625 -14.875 L 19.65625 -1.71875 C 19.65625 -0.40625 18.945312 0.25 17.53125 0.25 C 16.113281 0.25 15.40625 -0.40625 15.40625 -1.71875 L 15.40625 -11.5 L 12.828125 -1.46875 C 12.546875 -0.320312 11.785156 0.25 10.546875 0.25 C 9.847656 0.25 9.328125 0.0859375 8.984375 -0.234375 C 8.640625 -0.554688 8.40625 -0.976562 8.28125 -1.5 L 5.71875 -11.46875 L 5.71875 -1.71875 C 5.71875 -0.40625 5.007812 0.25 3.59375 0.25 Z M 3.59375 0.25 "/></g></g></g><g fill="#21266e" fill-opacity="0.4"><g transform="translate(205.814916, 303.30291)"><g><path d="M 3.21875 0 C 2.675781 0 2.25 -0.15625 1.9375 -0.46875 C 1.625 -0.789062 1.46875 -1.21875 1.46875 -1.75 L 1.46875 -15.75 C 1.46875 -16.300781 1.625 -16.726562 1.9375 -17.03125 C 2.25 -17.34375 2.675781 -17.5 3.21875 -17.5 L 14.046875 -17.5 C 15.117188 -17.5 15.65625 -16.96875 15.65625 -15.90625 C 15.65625 -14.820312 15.117188 -14.28125 14.046875 -14.28125 L 5.71875 -14.28125 L 5.71875 -10.375 L 11.875 -10.375 C 12.9375 -10.375 13.46875 -9.832031 13.46875 -8.75 C 13.46875 -7.6875 12.9375 -7.15625 11.875 -7.15625 L 5.71875 -7.15625 L 5.71875 -3.21875 L 14.046875 -3.21875 C 15.117188 -3.21875 15.65625 -2.6875 15.65625 -1.625 C 15.65625 -0.539062 15.117188 0 14.046875 0 Z M 3.21875 0 "/></g></g></g><g fill="#21266e" fill-opacity="1"><g transform="translate(147.664066, 301.093192)"><g><path d="M 8.578125 0.25 C 6.003906 0.25 4.101562 -0.550781 2.875 -2.15625 C 1.644531 -3.769531 1.03125 -5.976562 1.03125 -8.78125 C 1.03125 -10.625 1.304688 -12.21875 1.859375 -13.5625 C 2.421875 -14.90625 3.304688 -15.9375 4.515625 -16.65625 C 5.722656 -17.382812 7.289062 -17.75 9.21875 -17.75 C 11.039062 -17.75 12.507812 -17.441406 13.625 -16.828125 C 14.738281 -16.210938 15.628906 -15.34375 16.296875 -14.21875 C 16.398438 -14.070312 16.472656 -13.914062 16.515625 -13.75 C 16.554688 -13.582031 16.578125 -13.414062 16.578125 -13.25 C 16.578125 -12.96875 16.515625 -12.691406 16.390625 -12.421875 C 16.265625 -12.160156 16.082031 -11.945312 15.84375 -11.78125 C 15.476562 -11.53125 15.097656 -11.40625 14.703125 -11.40625 C 14.117188 -11.40625 13.648438 -11.628906 13.296875 -12.078125 C 12.710938 -12.921875 12.132812 -13.523438 11.5625 -13.890625 C 10.988281 -14.265625 10.300781 -14.453125 9.5 -14.453125 C 8.132812 -14.453125 7.085938 -13.953125 6.359375 -12.953125 C 5.640625 -11.953125 5.28125 -10.5625 5.28125 -8.78125 C 5.28125 -6.945312 5.65625 -5.535156 6.40625 -4.546875 C 7.164062 -3.566406 8.238281 -3.078125 9.625 -3.078125 C 10.289062 -3.078125 10.875 -3.179688 11.375 -3.390625 C 11.875 -3.597656 12.304688 -3.875 12.671875 -4.21875 L 12.671875 -6.875 L 10.125 -6.875 C 9.09375 -6.875 8.578125 -7.390625 8.578125 -8.421875 C 8.578125 -9.441406 9.09375 -9.953125 10.125 -9.953125 L 15.171875 -9.953125 C 15.703125 -9.953125 16.125 -9.789062 16.4375 -9.46875 C 16.757812 -9.15625 16.921875 -8.734375 16.921875 -8.203125 L 16.921875 -1.578125 C 16.921875 -0.359375 16.269531 0.25 14.96875 0.25 C 13.84375 0.25 13.203125 -0.191406 13.046875 -1.078125 C 12.484375 -0.691406 11.828125 -0.375 11.078125 -0.125 C 10.335938 0.125 9.503906 0.25 8.578125 0.25 Z M 8.578125 0.25 "/></g></g></g><g fill="#21266e" fill-opacity="1"><g transform="translate(166.036158, 301.093192)"><g><path d="M 1.328125 0.078125 C 0.910156 -0.109375 0.585938 -0.375 0.359375 -0.71875 C 0.140625 -1.070312 0.03125 -1.457031 0.03125 -1.875 C 0.03125 -2.15625 0.078125 -2.421875 0.171875 -2.671875 L 5 -15.671875 C 5.25 -16.335938 5.628906 -16.847656 6.140625 -17.203125 C 6.660156 -17.566406 7.363281 -17.75 8.25 -17.75 C 9.144531 -17.75 9.84375 -17.5625 10.34375 -17.1875 C 10.84375 -16.8125 11.21875 -16.304688 11.46875 -15.671875 L 16.25 -2.671875 C 16.351562 -2.410156 16.40625 -2.144531 16.40625 -1.875 C 16.40625 -1.457031 16.289062 -1.070312 16.0625 -0.71875 C 15.832031 -0.375 15.519531 -0.109375 15.125 0.078125 C 14.851562 0.171875 14.585938 0.21875 14.328125 0.21875 C 13.910156 0.21875 13.519531 0.109375 13.15625 -0.109375 C 12.800781 -0.335938 12.539062 -0.660156 12.375 -1.078125 L 11.375 -3.90625 L 5.078125 -3.90625 L 4.078125 -1.078125 C 3.910156 -0.660156 3.648438 -0.335938 3.296875 -0.109375 C 2.953125 0.109375 2.5625 0.21875 2.125 0.21875 C 1.875 0.21875 1.609375 0.171875 1.328125 0.078125 Z M 6.296875 -7.28125 L 10.15625 -7.28125 L 8.21875 -12.703125 Z M 6.296875 -7.28125 "/></g></g></g><g fill="#21266e" fill-opacity="1"><g transform="translate(182.483548, 301.093192)"><g><path d="M 3.59375 0.25 C 2.175781 0.25 1.46875 -0.40625 1.46875 -1.71875 L 1.46875 -14.875 C 1.46875 -15.65625 1.75 -16.328125 2.3125 -16.890625 C 2.875 -17.460938 3.703125 -17.75 4.796875 -17.75 C 5.785156 -17.75 6.53125 -17.53125 7.03125 -17.09375 C 7.53125 -16.664062 7.878906 -16.050781 8.078125 -15.25 L 10.578125 -5.71875 L 13.046875 -15.25 C 13.242188 -16.050781 13.59375 -16.664062 14.09375 -17.09375 C 14.59375 -17.53125 15.328125 -17.75 16.296875 -17.75 C 17.410156 -17.75 18.25 -17.460938 18.8125 -16.890625 C 19.375 -16.328125 19.65625 -15.65625 19.65625 -14.875 L 19.65625 -1.71875 C 19.65625 -0.40625 18.945312 0.25 17.53125 0.25 C 16.113281 0.25 15.40625 -0.40625 15.40625 -1.71875 L 15.40625 -11.5 L 12.828125 -1.46875 C 12.546875 -0.320312 11.785156 0.25 10.546875 0.25 C 9.847656 0.25 9.328125 0.0859375 8.984375 -0.234375 C 8.640625 -0.554688 8.40625 -0.976562 8.28125 -1.5 L 5.71875 -11.46875 L 5.71875 -1.71875 C 5.71875 -0.40625 5.007812 0.25 3.59375 0.25 Z M 3.59375 0.25 "/></g></g></g><g fill="#21266e" fill-opacity="1"><g transform="translate(203.605197, 301.093192)"><g><path d="M 3.21875 0 C 2.675781 0 2.25 -0.15625 1.9375 -0.46875 C 1.625 -0.789062 1.46875 -1.21875 1.46875 -1.75 L 1.46875 -15.75 C 1.46875 -16.300781 1.625 -16.726562 1.9375 -17.03125 C 2.25 -17.34375 2.675781 -17.5 3.21875 -17.5 L 14.046875 -17.5 C 15.117188 -17.5 15.65625 -16.96875 15.65625 -15.90625 C 15.65625 -14.820312 15.117188 -14.28125 14.046875 -14.28125 L 5.71875 -14.28125 L 5.71875 -10.375 L 11.875 -10.375 C 12.9375 -10.375 13.46875 -9.832031 13.46875 -8.75 C 13.46875 -7.6875 12.9375 -7.15625 11.875 -7.15625 L 5.71875 -7.15625 L 5.71875 -3.21875 L 14.046875 -3.21875 C 15.117188 -3.21875 15.65625 -2.6875 15.65625 -1.625 C 15.65625 -0.539062 15.117188 0 14.046875 0 Z M 3.21875 0 "/></g></g></g><g fill="#21266e" fill-opacity="0.4"><g transform="translate(222.037842, 303.30291)"><g/></g></g><g fill="#21266e" fill-opacity="1"><g transform="translate(219.828124, 301.093192)"><g/></g></g><g clip-path="url(#84680dd80d)"><path fill="#ffca43" d="M 239.851562 280.628906 L 240.636719 280.628906 L 241.277344 280.691406 C 241.285156 280.695312 241.292969 280.695312 241.300781 280.699219 C 241.339844 280.71875 241.410156 280.734375 241.507812 280.75 C 241.886719 280.800781 242.277344 280.953125 242.679688 281.195312 C 243.292969 281.566406 243.441406 282.25 243.371094 282.933594 C 243.363281 283.011719 243.371094 283.054688 243.441406 283.105469 C 243.867188 283.410156 244.261719 283.742188 244.625 284.101562 C 244.648438 284.125 244.675781 284.132812 244.703125 284.132812 L 259.089844 284.132812 C 259.136719 284.132812 259.179688 284.117188 259.214844 284.082031 C 259.554688 283.734375 259.925781 283.417969 260.328125 283.136719 C 260.363281 283.109375 260.382812 283.074219 260.382812 283.027344 C 260.382812 282.695312 260.347656 282.296875 260.445312 282 C 260.796875 280.90625 262.34375 280.6875 263.3125 280.628906 L 263.9375 280.628906 C 264.929688 280.714844 266.242188 280.871094 266.664062 281.945312 C 266.789062 282.261719 266.753906 282.710938 266.773438 283.066406 C 266.777344 283.085938 266.785156 283.101562 266.800781 283.117188 C 267.953125 283.964844 268.765625 284.949219 269.214844 286.3125 C 269.292969 286.550781 269.382812 286.9375 269.488281 287.46875 C 270.292969 291.605469 271.101562 295.746094 271.917969 299.882812 C 271.992188 300.261719 272.050781 300.648438 272.09375 301.035156 L 272.09375 301.464844 C 271.945312 303.597656 270.539062 305.402344 268.425781 305.863281 C 268.148438 305.921875 267.859375 305.933594 267.570312 305.949219 L 267.4375 305.949219 C 266.097656 305.855469 264.871094 305.054688 264.207031 303.890625 C 262.976562 301.722656 261.761719 299.542969 260.566406 297.355469 C 260.554688 297.339844 260.542969 297.335938 260.527344 297.351562 C 259.457031 298.347656 258.230469 298.820312 256.785156 298.527344 C 255.648438 298.296875 254.742188 297.527344 254.160156 296.550781 C 254.136719 296.515625 254.105469 296.5 254.066406 296.5 L 249.609375 296.5 C 249.578125 296.5 249.554688 296.511719 249.539062 296.539062 C 248.707031 297.871094 247.484375 298.675781 245.902344 298.601562 C 244.878906 298.554688 243.953125 298.121094 243.261719 297.359375 C 243.230469 297.324219 243.203125 297.328125 243.183594 297.367188 C 241.96875 299.542969 240.761719 301.71875 239.558594 303.890625 C 238.382812 306.015625 235.804688 306.550781 233.824219 305.167969 C 232.652344 304.347656 231.972656 303.21875 231.792969 301.785156 L 231.792969 300.878906 C 231.820312 300.574219 231.855469 300.324219 231.894531 300.125 C 232.699219 295.964844 233.5 291.804688 234.296875 287.644531 C 234.402344 287.078125 234.488281 286.691406 234.546875 286.484375 C 234.945312 285.125 235.730469 284.027344 236.902344 283.199219 C 236.945312 283.167969 236.964844 283.128906 236.964844 283.078125 C 236.960938 282.855469 236.96875 282.628906 236.984375 282.394531 C 237.097656 280.960938 238.730469 280.726562 239.851562 280.628906 Z M 263.746094 286.640625 C 263.914062 286.621094 264.066406 286.566406 264.214844 286.480469 C 264.359375 286.394531 264.480469 286.285156 264.582031 286.148438 C 264.683594 286.011719 264.757812 285.863281 264.800781 285.699219 C 264.84375 285.53125 264.851562 285.363281 264.828125 285.195312 C 264.808594 285.027344 264.753906 284.867188 264.667969 284.71875 C 264.585938 284.570312 264.476562 284.445312 264.34375 284.339844 C 264.207031 284.234375 264.058594 284.160156 263.898438 284.117188 C 263.734375 284.070312 263.570312 284.0625 263.40625 284.082031 C 263.238281 284.105469 263.082031 284.160156 262.9375 284.246094 C 262.792969 284.328125 262.667969 284.441406 262.566406 284.578125 C 262.464844 284.710938 262.394531 284.863281 262.351562 285.027344 C 262.308594 285.191406 262.296875 285.359375 262.320312 285.53125 C 262.34375 285.699219 262.398438 285.859375 262.480469 286.007812 C 262.566406 286.15625 262.675781 286.28125 262.808594 286.386719 C 262.941406 286.492188 263.089844 286.566406 263.253906 286.609375 C 263.414062 286.652344 263.578125 286.664062 263.746094 286.640625 Z M 237.386719 287.296875 C 237.34375 287.335938 237.320312 287.386719 237.320312 287.445312 L 237.320312 288.863281 C 237.320312 288.886719 237.324219 288.90625 237.335938 288.925781 C 237.453125 289.113281 237.589844 289.179688 237.824219 289.179688 C 238.332031 289.183594 238.84375 289.1875 239.355469 289.1875 C 239.375 289.1875 239.386719 289.199219 239.386719 289.21875 L 239.40625 291.039062 C 239.40625 291.050781 239.410156 291.0625 239.417969 291.074219 C 239.53125 291.238281 239.65625 291.308594 239.871094 291.308594 C 240.15625 291.3125 240.4375 291.316406 240.714844 291.324219 C 241.058594 291.332031 241.375 291.265625 241.367188 290.867188 C 241.355469 290.316406 241.355469 289.765625 241.363281 289.214844 C 241.367188 289.195312 241.375 289.183594 241.394531 289.183594 C 241.890625 289.171875 242.386719 289.171875 242.882812 289.191406 C 243 289.195312 243.25 289.125 243.320312 289.035156 C 243.46875 288.839844 243.402344 288.332031 243.398438 288.128906 C 243.398438 287.742188 243.554688 287.175781 242.949219 287.171875 C 242.421875 287.164062 241.90625 287.164062 241.402344 287.167969 C 241.359375 287.167969 241.335938 287.144531 241.335938 287.101562 C 241.3125 286.535156 241.304688 285.972656 241.300781 285.410156 C 241.300781 285.132812 241.109375 284.953125 240.835938 284.957031 C 240.480469 284.960938 240.128906 284.96875 239.777344 284.972656 C 239.539062 284.976562 239.347656 285.097656 239.335938 285.359375 C 239.308594 285.898438 239.347656 286.363281 239.335938 287.132812 C 239.335938 287.152344 239.324219 287.164062 239.304688 287.164062 C 238.808594 287.167969 238.316406 287.167969 237.828125 287.167969 C 237.652344 287.164062 237.515625 287.195312 237.386719 287.296875 Z M 260.445312 289.710938 C 260.613281 289.707031 260.773438 289.671875 260.925781 289.605469 C 261.082031 289.539062 261.214844 289.441406 261.332031 289.320312 C 261.449219 289.199219 261.539062 289.058594 261.601562 288.898438 C 261.660156 288.738281 261.691406 288.574219 261.6875 288.402344 C 261.6875 288.234375 261.652344 288.070312 261.585938 287.914062 C 261.519531 287.757812 261.425781 287.617188 261.304688 287.5 C 261.183594 287.378906 261.046875 287.289062 260.890625 287.226562 C 260.734375 287.164062 260.570312 287.132812 260.402344 287.136719 C 260.234375 287.140625 260.074219 287.175781 259.921875 287.242188 C 259.765625 287.308594 259.632812 287.40625 259.515625 287.527344 C 259.398438 287.648438 259.308594 287.789062 259.246094 287.949219 C 259.183594 288.109375 259.15625 288.273438 259.15625 288.445312 C 259.160156 288.613281 259.195312 288.777344 259.261719 288.933594 C 259.328125 289.089844 259.421875 289.230469 259.542969 289.347656 C 259.664062 289.46875 259.800781 289.558594 259.957031 289.621094 C 260.113281 289.683594 260.277344 289.714844 260.445312 289.710938 Z M 266.8125 289.71875 C 266.980469 289.714844 267.140625 289.683594 267.296875 289.617188 C 267.449219 289.546875 267.585938 289.453125 267.703125 289.332031 C 267.820312 289.210938 267.914062 289.070312 267.976562 288.910156 C 268.039062 288.75 268.070312 288.585938 268.066406 288.414062 C 268.066406 288.242188 268.03125 288.078125 267.964844 287.921875 C 267.902344 287.761719 267.808594 287.625 267.6875 287.503906 C 267.566406 287.382812 267.429688 287.292969 267.273438 287.226562 C 267.117188 287.164062 266.957031 287.132812 266.789062 287.132812 C 266.621094 287.136719 266.457031 287.167969 266.304688 287.234375 C 266.148438 287.304688 266.011719 287.398438 265.894531 287.519531 C 265.777344 287.640625 265.6875 287.78125 265.625 287.941406 C 265.5625 288.101562 265.53125 288.265625 265.53125 288.4375 C 265.535156 288.609375 265.566406 288.773438 265.632812 288.929688 C 265.699219 289.089844 265.792969 289.226562 265.910156 289.347656 C 266.03125 289.46875 266.167969 289.558594 266.324219 289.625 C 266.480469 289.6875 266.644531 289.71875 266.8125 289.71875 Z M 256.503906 288.683594 C 256.5 288.539062 256.453125 288.417969 256.351562 288.320312 C 256.25 288.21875 256.128906 288.167969 255.988281 288.167969 L 254.40625 288.171875 C 254.265625 288.171875 254.144531 288.222656 254.042969 288.324219 C 253.945312 288.421875 253.894531 288.542969 253.894531 288.6875 L 253.894531 288.734375 C 253.894531 288.875 253.945312 288.996094 254.046875 289.097656 C 254.144531 289.195312 254.265625 289.246094 254.410156 289.246094 L 255.988281 289.242188 C 256.132812 289.242188 256.253906 289.191406 256.351562 289.09375 C 256.453125 288.992188 256.503906 288.871094 256.503906 288.726562 Z M 247.753906 288.191406 C 247.21875 288.199219 247.109375 288.898438 247.515625 289.152344 C 247.609375 289.210938 247.761719 289.242188 247.976562 289.246094 C 248.445312 289.246094 248.914062 289.242188 249.382812 289.230469 C 250.078125 289.214844 250.011719 288.175781 249.371094 288.175781 C 248.832031 288.175781 248.292969 288.179688 247.753906 288.191406 Z M 263.800781 290.207031 C 263.015625 290.050781 262.214844 290.753906 262.304688 291.574219 C 262.386719 292.300781 262.957031 292.847656 263.722656 292.773438 C 265.148438 292.628906 265.257812 290.503906 263.800781 290.207031 Z M 246.425781 291.304688 C 245.03125 291.058594 243.707031 292.203125 243.621094 293.582031 C 243.539062 294.929688 244.5 296.101562 245.863281 296.21875 C 247.578125 296.367188 248.90625 294.699219 248.414062 293.046875 C 248.136719 292.125 247.367188 291.472656 246.425781 291.304688 Z M 255.167969 293.46875 C 254.921875 295.671875 257.507812 297.117188 259.21875 295.617188 C 260.828125 294.207031 259.996094 291.542969 257.875 291.292969 C 256.542969 291.136719 255.316406 292.125 255.167969 293.46875 Z M 255.167969 293.46875 " fill-opacity="1" fill-rule="nonzero"/></g></svg>